<svg width="42" height="42" viewBox="0 0 42 42" fill="none" xmlns="http://www.w3.org/2000/svg">
<path fill-rule="evenodd" clip-rule="evenodd" d="M21.0002 0C9.40362 0 0 9.63955 0 21.5315C0 31.0448 6.01719 39.1159 14.3612 41.963C15.4107 42.1623 15.796 41.4959 15.796 40.9272C15.796 40.4137 15.7766 38.7176 15.7675 36.9184C9.92525 38.2209 8.69246 34.3779 8.69246 34.3779C7.73718 31.8892 6.36077 31.2274 6.36077 31.2274C4.45543 29.891 6.50439 29.9185 6.50439 29.9185C8.61317 30.07 9.72355 32.1373 9.72355 32.1373C11.5966 35.4291 14.6363 34.4774 15.8346 33.9272C16.0231 32.5359 16.5674 31.5854 17.1679 31.048C12.5035 30.5036 7.60017 28.6573 7.60017 20.4069C7.60017 18.0561 8.42052 16.1353 9.76389 14.6274C9.54585 14.0848 8.82704 11.8951 9.96733 8.92929C9.96733 8.92929 11.7308 8.3506 15.7439 11.1364C17.419 10.6593 19.2155 10.4201 21.0002 10.4119C22.7848 10.4201 24.5827 10.6593 26.261 11.1364C30.2692 8.3506 32.0302 8.92929 32.0302 8.92929C33.1733 11.8951 32.4542 14.0848 32.2361 14.6274C33.5826 16.1353 34.3974 18.0561 34.3974 20.4069C34.3974 28.6769 29.4847 30.4979 24.8084 31.0309C25.5617 31.6991 26.2328 33.0095 26.2328 35.0183C26.2328 37.8989 26.2085 40.2176 26.2085 40.9272C26.2085 41.5002 26.5865 42.1716 27.651 41.9601C35.9905 39.1098 42 31.0416 42 21.5315C42 9.63955 32.5978 0 21.0002 0Z" fill="black"/>
<path fill-rule="evenodd" clip-rule="evenodd" d="M7.95401 30.9147C7.90776 31.022 7.74362 31.0538 7.59409 30.9803C7.44177 30.9101 7.35622 30.7642 7.40561 30.6569C7.45081 30.5467 7.6153 30.5164 7.76727 30.5895C7.91993 30.6601 8.00687 30.8074 7.95401 30.9147Z" fill="black"/>
<path fill-rule="evenodd" clip-rule="evenodd" d="M8.80457 31.8874C8.70441 31.9826 8.50863 31.9384 8.37579 31.788C8.23842 31.6378 8.21269 31.4371 8.31423 31.3405C8.41752 31.2453 8.60739 31.2898 8.7451 31.4399C8.88246 31.5918 8.90924 31.7912 8.80457 31.8874Z" fill="black"/>
<path fill-rule="evenodd" clip-rule="evenodd" d="M9.63266 33.1275C9.50399 33.2191 9.2936 33.1332 9.16354 32.9417C9.03487 32.7502 9.03487 32.5206 9.16632 32.4286C9.29673 32.3366 9.50399 32.4193 9.63579 32.6094C9.76411 32.8037 9.76411 33.0337 9.63266 33.1275Z" fill="black"/>
<path fill-rule="evenodd" clip-rule="evenodd" d="M10.7669 34.3256C10.6518 34.4557 10.4066 34.4208 10.2272 34.2432C10.0436 34.0695 9.99245 33.8232 10.1079 33.693C10.2244 33.5625 10.471 33.5992 10.6518 33.7754C10.834 33.9487 10.8897 34.1968 10.7669 34.3256Z" fill="black"/>
<path fill-rule="evenodd" clip-rule="evenodd" d="M12.332 35.0211C12.2813 35.1898 12.0452 35.2664 11.8073 35.1947C11.5698 35.1209 11.4143 34.9234 11.4623 34.753C11.5117 34.5832 11.7489 34.5034 11.9885 34.58C12.2256 34.6535 12.3814 34.8496 12.332 35.0211Z" fill="black"/>
<path fill-rule="evenodd" clip-rule="evenodd" d="M14.0504 35.1503C14.0563 35.3279 13.8546 35.4751 13.6049 35.478C13.3538 35.484 13.1507 35.3403 13.1479 35.1656C13.1479 34.9863 13.3451 34.8405 13.5962 34.8362C13.8459 34.8312 14.0504 34.9738 14.0504 35.1503Z" fill="black"/>
<path fill-rule="evenodd" clip-rule="evenodd" d="M15.6493 34.8711C15.6792 35.0444 15.5056 35.2223 15.2577 35.2694C15.0139 35.3154 14.7882 35.2084 14.7573 35.0365C14.727 34.859 14.9037 34.681 15.1471 34.635C15.3954 34.5908 15.6176 34.6949 15.6493 34.8711Z" fill="black"/>
</svg>
