<svg width="42" height="42" viewBox="0 0 42 42" fill="none" xmlns="http://www.w3.org/2000/svg">
<path fill-rule="evenodd" clip-rule="evenodd" d="M21 0C9.40202 0 0 9.40202 0 21C0 32.598 9.40202 42 21 42C32.598 42 42 32.598 42 21C42 9.40202 32.598 0 21 0ZM10.0811 17.3932H14.8401V31.6922H10.0811V17.3932ZM15.1537 12.9699C15.1228 11.5679 14.1203 10.5 12.4922 10.5C10.8642 10.5 9.7998 11.5679 9.7998 12.9699C9.7998 14.3428 10.8327 15.4414 12.4304 15.4414H12.4608C14.1203 15.4414 15.1537 14.3428 15.1537 12.9699ZM26.5239 17.0574C29.6556 17.0574 32.0034 19.1015 32.0034 23.4935L32.0032 31.6921H27.2443V24.0422C27.2443 22.1207 26.5556 20.8095 24.8328 20.8095C23.518 20.8095 22.7349 21.6934 22.391 22.5472C22.2651 22.8531 22.2342 23.2794 22.2342 23.7068V31.6925H17.4746C17.4746 31.6925 17.5373 18.7353 17.4746 17.3935H22.2342V19.4189C22.8659 18.4452 23.9971 17.0574 26.5239 17.0574Z" fill="black"/>
</svg>
