<svg width="42" height="42" viewBox="0 0 42 42" fill="none" xmlns="http://www.w3.org/2000/svg">
<path fill-rule="evenodd" clip-rule="evenodd" d="M21 42C32.598 42 42 32.598 42 21C42 9.40202 32.598 0 21 0C9.40202 0 0 9.40202 0 21C0 32.598 9.40202 42 21 42ZM17.1499 30.625C17.6606 30.625 17.8941 30.3978 18.1762 30.1231L20.7222 27.6474L25.9698 31.5244C26.9355 32.0573 27.6325 31.7814 27.8731 30.6278L31.3179 14.3943C31.6706 12.9802 30.7789 12.3389 29.855 12.7583L9.62679 20.5583C8.24603 21.1121 8.25408 21.8824 9.37511 22.2256L14.5661 23.8459L26.5839 16.264C27.1512 15.9199 27.6719 16.1049 27.2446 16.4842L17.5073 25.2713L17.1499 30.625Z" fill="black"/>
</svg>
